# xmcd
#
# Track frame offsets: 
#        225
#        10424
#        33575
#        49752
#        68015
#        78816
#        90628
#        102956
#        121575
#        127835
#        145755
#        165284
#        184202
#        207169
#        219791
#        232074
#
# Disc length: 3230 seconds
#
# Revision: 2
# Processed by: cddbd v1.5PL3 Copyright (c) Steve Scherf et al.
# Submitted via: ExactAudioCopy v0.90b4
#
DISCID=c80c9b10
DTITLE=Merle Haggard - Live
DYEAR=1995
DGENRE=Country
TTITLE0=Mama Tried 
TTITLE1=When Times Were Good 
TTITLE2=Today I Started Loving You Again 
TTITLE3=Chill Factor 
TTITLE4=Ida Red 
TTITLE5=Okie From Muskogee 
TTITLE6=Bill Cheatum (Instrumental)
TTITLE7=Mama's Hungry Eyes
TTITLE8=The Fightin' Side Of Me 
TTITLE9=I Think I'll Just Stay Here And Drink
TTITLE10=Honky Tonk Night Time Man
TTITLE11=Footlights
TTITLE12=If I Could Only Fly 
TTITLE13=Kern River 
TTITLE14=I Knew The Moment I Lost You 
TTITLE15=This Mornin' This Evenin' So Soon 
EXTD=
EXTT0=
EXTT1=
EXTT2=
EXTT3=
EXTT4=
EXTT5=
EXTT6=
EXTT7=
EXTT8=
EXTT9=
EXTT10=
EXTT11=
EXTT12=
EXTT13=
EXTT14=
EXTT15=
PLAYORDER=
